<svg width="34" height="34" viewBox="0 0 34 34" fill="none" xmlns="http://www.w3.org/2000/svg">
<path d="M6.78644 5.56818H26.6243C27.778 5.56818 28.8847 6.0269 29.7005 6.84259C30.5163 7.6584 30.9749 8.76504 30.9749 9.91876V23.492C30.9749 24.6458 30.5164 25.7523 29.7005 26.5682C28.8846 27.384 27.7781 27.8426 26.6243 27.8426H6.78644C5.63271 27.8425 4.52608 27.384 3.71027 26.5682C2.89458 25.7523 2.43585 24.6457 2.43585 23.492V9.91876C2.43591 8.76504 2.89445 7.6584 3.71027 6.84259C4.52608 6.02678 5.63271 5.56824 6.78644 5.56818ZM3.82843 23.492C3.82843 24.2765 4.14003 25.029 4.69464 25.5838C5.24938 26.1385 6.00193 26.4509 6.78644 26.451H26.6243C27.4089 26.451 28.1613 26.1386 28.7161 25.5838C29.2709 25.029 29.5833 24.2766 29.5833 23.492V13.2254H3.82843V23.492ZM21.9261 20.1863H25.0589C25.2434 20.1864 25.4206 20.259 25.5511 20.3895C25.6815 20.5199 25.7541 20.6972 25.7542 20.8817C25.7542 21.0661 25.6814 21.2433 25.5511 21.3738C25.4206 21.5043 25.2434 21.5778 25.0589 21.5779H21.9261C21.7415 21.5779 21.5644 21.5044 21.4339 21.3738C21.3035 21.2433 21.2298 21.0661 21.2298 20.8817C21.2299 20.6972 21.3035 20.5199 21.4339 20.3895C21.5644 20.2591 21.7416 20.1864 21.9261 20.1863ZM6.78644 6.96075C6.00193 6.96081 5.24938 7.27223 4.69464 7.82697C4.13991 8.3817 3.82849 9.13426 3.82843 9.91876V11.8328H29.5833V9.91876C29.5833 9.13426 29.2709 8.3817 28.7161 7.82697C28.1614 7.27235 27.4088 6.96075 26.6243 6.96075H6.78644Z" fill="#4CAF4F" stroke="#4CAF4F" stroke-width="0.696069"/>
</svg>
