<svg width="34" height="34" viewBox="0 0 34 34" fill="none" xmlns="http://www.w3.org/2000/svg">
<path d="M27.8428 29.2349V26.4506C27.8428 24.9738 27.2561 23.5574 26.2118 22.5131C25.1675 21.4688 23.7511 20.8821 22.2742 20.8821H20.8821C20.5129 20.8821 20.1588 20.7354 19.8977 20.4743C19.6366 20.2133 19.4899 19.8592 19.4899 19.49V12.5293C19.4899 11.7908 19.1966 11.0826 18.6744 10.5605C18.1523 10.0383 17.4441 9.74498 16.7057 9.74498C15.9672 9.74498 15.259 10.0383 14.7369 10.5605C14.2147 11.0826 13.9214 11.7908 13.9214 12.5293V25.0585L10.5802 20.6037C10.3209 20.2579 9.9846 19.9772 9.59799 19.7839C9.21138 19.5906 8.78507 19.49 8.35282 19.49H7.74863C6.54443 19.49 5.56854 20.4658 5.56854 21.67C5.56854 22.0654 5.67574 22.4538 5.87899 22.7921L9.74496 29.2349M16.7057 5.56856V4.17642V5.56856ZM25.0585 13.9214H26.4506H25.0585ZM6.96068 13.9214H8.35282H6.96068ZM10.2225 7.4382L9.23822 6.45396L10.2225 7.4382ZM23.1888 7.4382L24.1731 6.45396L23.1888 7.4382Z" fill="#4CAF4F"/>
<path d="M27.8428 29.2349V26.4506C27.8428 24.9738 27.2561 23.5574 26.2118 22.5131C25.1675 21.4688 23.7511 20.8821 22.2742 20.8821H20.8821C20.5129 20.8821 20.1588 20.7354 19.8977 20.4743C19.6366 20.2133 19.4899 19.8592 19.4899 19.49V12.5293C19.4899 11.7908 19.1966 11.0826 18.6744 10.5605C18.1523 10.0383 17.4441 9.74498 16.7057 9.74498V9.74498C15.9672 9.74498 15.259 10.0383 14.7369 10.5605C14.2147 11.0826 13.9214 11.7908 13.9214 12.5293V25.0585L10.5802 20.6037C10.3209 20.2579 9.9846 19.9772 9.59799 19.7839C9.21138 19.5906 8.78507 19.49 8.35282 19.49H7.74863C6.54443 19.49 5.56854 20.4658 5.56854 21.67C5.56854 22.0654 5.67574 22.4538 5.87899 22.7921L9.74496 29.2349M16.7057 5.56856V4.17642M25.0585 13.9214H26.4506M6.96068 13.9214H8.35282M10.2225 7.4382L9.23822 6.45396M23.1888 7.4382L24.1731 6.45396" stroke="#4CAF4F" stroke-width="1.39214" stroke-linecap="round" stroke-linejoin="round"/>
</svg>
