<svg width="34" height="34" viewBox="0 0 34 34" fill="none" xmlns="http://www.w3.org/2000/svg">
<g clip-path="url(#clip0_211_2049)">
<path fill-rule="evenodd" clip-rule="evenodd" d="M9.7351 9.71806L2.7843 16.599C4.17459 17.9753 5.76278 19.1352 7.49435 20.0427C7.97297 21.2995 8.72319 22.4782 9.745 23.4897C13.5893 27.2953 19.8221 27.2953 23.6664 23.4897C24.6882 22.4782 25.4384 21.2995 25.9171 20.0426C27.6486 19.1352 29.2368 17.9753 30.6271 16.599L23.6819 9.72366C23.6768 9.71852 23.6716 9.71337 23.6664 9.70823C19.8221 5.90259 13.5893 5.90259 9.745 9.70823C9.7417 9.71151 9.7384 9.71478 9.7351 9.71806ZM23.0013 21.2841C20.9757 21.9609 18.8494 22.3074 16.7057 22.3074C14.562 22.3074 12.4357 21.9609 10.4102 21.2841C10.6296 21.5724 10.8719 21.849 11.1371 22.1116C14.2126 25.1561 19.1988 25.1561 22.2742 22.1116C22.5394 21.849 22.7818 21.5724 23.0013 21.2841ZM11.2799 10.9486C11.8022 11.2901 12.3575 11.5824 12.9386 11.8207C14.1329 12.3104 15.413 12.5625 16.7057 12.5625C17.9984 12.5625 19.2785 12.3104 20.4728 11.8207C21.0539 11.5824 21.6092 11.2901 22.1316 10.9485C19.0945 8.08781 14.3169 8.08781 11.2799 10.9486Z" fill="#3B4158"/>
</g>
<defs>
<clipPath id="clip0_211_2049">
<rect width="27.8428" height="19.4899" fill="white" transform="translate(2.7843 6.854)"/>
</clipPath>
</defs>
</svg>
