<svg width="13" height="13" viewBox="0 0 13 13" fill="none" xmlns="http://www.w3.org/2000/svg">
<g clip-path="url(#clip0_1082_231)">
<path fill-rule="evenodd" clip-rule="evenodd" d="M11.8543 0.674893C11.9961 0.816702 12.0441 1.02721 11.9779 1.2165L8.32351 11.6575C8.2528 11.8596 8.06592 11.998 7.85205 12.0067C7.63817 12.0154 7.44064 11.8927 7.35371 11.6971L5.34705 7.18212L0.832063 5.17546C0.63646 5.08853 0.513745 4.891 0.52247 4.67712C0.531196 4.46325 0.669594 4.27637 0.871628 4.20566L11.3127 0.551296C11.502 0.485045 11.7125 0.533084 11.8543 0.674893ZM6.36523 6.90223L7.77302 10.0698L10.2367 3.03081L6.36523 6.90223ZM9.49837 2.29251L2.45941 4.75615L5.62694 6.16394L9.49837 2.29251Z" fill="white"/>
</g>
<defs>
<clipPath id="clip0_1082_231">
<rect width="12.5293" height="12.5293" fill="white"/>
</clipPath>
</defs>
</svg>
